# xmcd CD database file
#
# Track frame offsets:
#	150
#	44351
#	86699
#	107848
#	127268
#	182162
#	232623
#	268920
#
# Disc length: 3776 seconds
#
# Revision: 9
# Processed by: cddbd v1.5.2PL0 Copyright (c) Steve Scherf et al.
# Submitted via: CDex 1.51
#
DISCID=6c0ebe08
DTITLE=Keith Jarrett, Charlie Haden - Jasmine
DYEAR=2010
DGENRE=Jazz
TTITLE0=For All We Know <J. F. Coots, S. M. Lewis>
TTITLE1=Where Can I Go Without You? <P. Lee, V. Young>
TTITLE2=No Moon At All <R. Evans, D. A. Mann>
TTITLE3=One Day I'll Fly Away <J. Sample, M. Jennings>
TTITLE4=I'm Gonna Laugh You Right Out Of My Life <C. Coleman, J. Mccarthy>
TTITLE5=Body And Soul <J. Green, E. Heyman, F. Eyton, R. Sour>
TTITLE6=Goodbye <G. Jenkins>
TTITLE7=Don't Ever Leave Me <J. Kern, O. Hammerstein II>
EXTD=YEAR: 2010
EXTT0=
EXTT1=
EXTT2=
EXTT3=
EXTT4=
EXTT5=
EXTT6=
EXTT7=
PLAYORDER=
